<?xml version="1.0" encoding="UTF-8"?>
<svg id="Layer_1" data-name="Layer 1" xmlns="http://www.w3.org/2000/svg" viewBox="0 0 24 24">
  <path d="M13.03,7.04h.83c-.13-1.22.55-1.25,1.54-1.18.36.03.65.18.7.57.05.34.05,1.71-.02,2.03-.04.21-.21.41-.42.46-.19.05-1.13.05-1.34.01-.51-.1-.51-.76-.48-1.16h-.83v2.89c-1.88-.61-3.1,1.71-1.61,2.99h-4.45v6.31H.5v-6.29c0-1.07,1.24-2.42,2.32-2.42h7.85l.05-3.47h-.88c.03.4.01,1.06-.48,1.16-.2.04-1.14.04-1.34-.01-.17-.04-.37-.24-.42-.42-.07-.26-.06-1.77-.02-2.08.05-.38.29-.54.65-.57.27-.02.98-.03,1.2.07.43.21.4.69.39,1.1h.81s.03.04.05.04l.07-.07c-.04-1.6,2.29-1.56,2.26.03Z"/>
  <path d="M18.36,14.87l2.6-1.93c.33-.36-.05-.78-.47-.57l-2.94,2.2c-.61.31-1,.21-1.61,0-1.31-.42-2.58-1.01-3.89-1.44-1-.51-.53-1.95.56-1.83l3.7,1.49c.23.06.39.04.56-.12.93-.89,2.09-1.64,3.01-2.52.21-.2.48-.39.24-.69-.12-.15-.28-.21-.45-.11l-3.2,2.67-3.2-1.26c-.02-.07.02-.08.05-.12.65-.94,2.2.31,3,.46l3.66-2.78c-1.79-.94-1.45-3.63.5-4.17,2.57-.71,4.06,2.75,1.85,4.15.36.47.78.88,1,1.45.04.11.17.48.17.56v9.66h-5.14v-5.09Z"/>
  <path d="M2.52,9.91c-2.04-2.04.89-5.26,3.12-3.38,2.42,2.05-.89,5.61-3.12,3.38Z"/>
</svg>