<?xml version="1.0" encoding="UTF-8"?>
<svg id="Layer_1" data-name="Layer 1" xmlns="http://www.w3.org/2000/svg" viewBox="0 0 24 24">
  <path d="M23,19.37c-.17.62-.88.92-1.41.53-.27-.19-.3-.38-.4-.67-.35-1.05-.56-2.16-.92-3.21l-3.02-3.08c-.53-1.01-.38-2.35-.22-3.45l-.35.53c-.19.38-.34.77-.45,1.18-.12.43-.1,1.2-.72,1.22-.88.02-.49-1.15-.35-1.65.42-1.47,1.45-2.99,2.91-3.58,1.59-.64,2.16.37,1.8,1.82l-.56-1.13c-.51-.61-1.47-.16-1.31.62.41.8.7,1.78,1.15,2.55.1.18.14.26.34.36l.07,1.33,2.33,2.4,1.12,3.84v.39Z"/>
  <path d="M17.46,13.45l1.82,1.81c.09.18.1,1.17.06,1.38-.02.12-.16.31-.23.41-.63.94-1.46,1.81-2.1,2.76-.85.72-1.97-.16-1.37-1.16.5-.84,1.36-1.65,1.89-2.49l-.07-2.71Z"/>
  <path d="M2.25,18.34l5.22.39,1.04.55c1.58.08,3.15.3,4.72.39.13,0,.31.02.43.02.06,0,.11-.07.2-.06.36.05.37.68-.03.68-.1,0-.15-.1-.22-.12-.1-.03-.34-.04-.46-.05-1.52-.17-3.07-.2-4.6-.35l-1.37.35-5.29-.44c-.18,0-.16.21-.3.31-.28.2-.62-.04-.58-.36.01-.11.31-.51.38-.7.09-.25.12-.75.23-.93.2-.33.76-.08.64.32ZM8.18,19.42l-.76-.34-5.26-.39-.22.68,4.75.39c.49.03.96-.12,1.42-.26.06-.02.07.02.06-.09Z"/>
  <path d="M19.28,4.18c1.41-1.43,3.66.53,2.43,2.11-1.39,1.79-3.99-.52-2.43-2.11Z"/>
  <path d="M18.56,7.78c.27-.05.48.03.63.25l1.06,2.29c.68.43,1.66.74,2.31,1.17.58.39.17,1.23-.5,1.02-.89-.49-1.87-.85-2.71-1.42l-1.19-2.63c-.08-.28.12-.63.41-.69Z"/>
</svg>