<?xml version="1.0" encoding="UTF-8"?>
<svg id="Layer_1" data-name="Layer 1" xmlns="http://www.w3.org/2000/svg" viewBox="0 0 24 24">
  <path d="M8.19,9.12c.54.54,1.32,1.04,2.04,1.29.36.13.75.18,1.11.29v12.8s-5.12,0-5.12,0c-1.72-.12-3.12-1.4-3.42-3.08L1.6,7.6c-.12-1.71,1.01-3.35,2.66-3.81.84-.23,1.76-.16,2.62-.14.06.04.01.05,0,.08-.04.23-.14.5-.18.75-.26,1.68.28,3.43,1.48,4.63Z"/>
  <path d="M14.59,2.5c-2.67-2.56-7.09,0-6.16,3.63.08.32.34.72.38.94.11.55-.5.84-.82.49-.22-.24-.48-1.05-.55-1.38-.82-3.77,3.03-6.84,6.54-5.24,2.34,1.07,3.47,4.09,2.21,6.39-.19.35-.59.59-.89.19-.26-.35.06-.65.18-.97.53-1.39.18-3.02-.89-4.05Z"/>
  <path d="M13.95,3.94c-.36.39-.77.74-1.14,1.12.04.44-.05.89-.52,1.05-1.33.48-1.53-1.86-.02-1.56l1.47-1.47c.24-.24.65-.08.65.25,0,.23-.29.44-.45.61Z"/>
  <path d="M9.35,8.31c.56-.08.72.81.2.92-.74.15-.81-.83-.2-.92Z"/>
  <path d="M10.61,9.07c.65-.12.61.86.03.78-.43-.06-.47-.7-.03-.78Z"/>
  <path d="M11.83,9.32c.44-.08.54.58.16.67-.51.11-.59-.59-.16-.67Z"/>
  <path d="M13.2,9.32c.27.27-.13.68-.41.45s.13-.72.41-.45Z"/>
  <path d="M13.77,8.99c.43-.13.45.54.07.49-.28-.04-.27-.43-.07-.49Z"/>
  <path d="M14.52,8.56c.38-.12.39.48.05.4-.22-.05-.24-.34-.05-.4Z"/>
  <path d="M21.52,4.89c-1.17-1.33-2.72-1.31-4.37-1.26.04.38.17.75.22,1.13.14,1.23-.2,2.54-.89,3.56-.86,1.27-2.24,2.13-3.76,2.34-.07.07-.01.99-.01,1.17-.02,3.46-.03,6.92,0,10.38,0,.23,0,.46,0,.69,0,.12-.1.51,0,.58l5.16.02c1.72-.15,3.1-1.41,3.38-3.12.08-.45.07-.92.15-1.37l.03-.34h0c.26-3.37.62-6.73.9-10.1.12-1.46.24-2.49-.81-3.68Z"/>
</svg>