<?xml version="1.0" encoding="UTF-8"?>
<svg id="Layer_1" data-name="Layer 1" xmlns="http://www.w3.org/2000/svg" viewBox="0 0 24 24">
  <path d="M8.67,23.5c.04-.4.3-.6.64-.78l.04-.15c-1.91-2.28-2.47-5.33-2.4-8.21h10.12c.07,2.88-.49,5.94-2.4,8.21-.03.22.77.49.68.93h-2.88c-.29-.51-.18-4.51-.4-4.57-.27-.07-.51.24-.52.39-.06,1.39.13,2.81-.12,4.18h-2.76Z"/>
  <path d="M12.58,5.34c2.77-.93,2.37-4.98-.75-4.83-2.85.13-2.99,4.05-.4,4.83h1.15Z"/>
  <path d="M6.94,13.73l.4-2.42.58-2.07c-.46.68-.83,1.51-1.04,2.3-.23.89-.22,1.8-.42,2.69-.37.78-1.73.73-1.92-.12-.33-1.46.54-3.81,1.35-5.04,2.95-4.46,9.34-4.41,12.24.07.78,1.21,1.59,3.43,1.33,4.87-.17.92-1.51,1.06-1.93.22-.19-.89-.19-1.8-.42-2.69-.2-.79-.58-1.62-1.04-2.3l.58,2.07.4,2.42H6.94Z"/>
</svg>