<?xml version="1.0" encoding="UTF-8"?>
<svg id="Layer_1" data-name="Layer 1" xmlns="http://www.w3.org/2000/svg" viewBox="0 0 24 24">
  <path d="M15.68,11.65c-.52.52-1.08.29-1.68.12-1.34-.37-2.68-.79-3.99-1.24-.47-.31-.8-1.33-1.16-1.79-.02-.03,0-.06-.07-.04-.36,1.08-.44,2.21-.27,3.34.03.08.09.15.14.22.77,1.04,1.83,2.05,2.54,3.1.31.45.24.61.28,1.12.13,1.62.33,3.35.39,4.96.07,2.06-2.39,2.28-2.79.42l-.37-5.12-1.71-2.11c-3.18-1.03-2.82-5.55-1.51-7.9.74-1.33,2.6-2.59,4.01-1.44.69,1.07,1.28,2.22,1.95,3.31l3.84,1.15c.78.3.98,1.31.39,1.9Z"/>
  <path d="M4.69,13.32l.32.47c.3.37.65.68,1.06.92.18.11.5.22.64.33.06.05.44.5.47.57.01.03.04.06.03.1l-.8,6.38c-.47,1.54-2.64,1.29-2.78-.31l1.04-8.45Z"/>
  <path d="M18.9,21.65l-.61-5.12h-4.59s-.05.08-.05.12c-.28,2.17-.53,4.34-.82,6.51-.1.39-.64.32-.64-.08l1.27-9.92c.12-.51.54-.92,1.08-.97.94-.08,2,.06,2.95,0,.54.11.97.56,1.02,1.12l1.02,8.07.06.17c.99.21,1.04,1.64.07,1.91-1.13.33-1.8-1.26-.75-1.81ZM13.77,15.88h4.41c-.14-.91-.19-1.85-.38-2.75-.11-.2-.31-.31-.54-.33-.64-.06-1.84-.05-2.5,0-.31.02-.55.11-.65.42l-.33,2.67ZM19.22,21.89c-.49.09-.65.78-.27,1.09.55.46,1.31-.19.96-.8-.15-.26-.41-.34-.7-.29Z"/>
  <path d="M9.11,1.19c2.19-2.19,5.39,1.32,3.05,3.3-2.18,1.84-5.05-1.3-3.05-3.3Z"/>
</svg>