<?xml version="1.0" encoding="UTF-8"?>
<svg id="Layer_1" data-name="Layer 1" xmlns="http://www.w3.org/2000/svg" viewBox="0 0 24 24">
  <defs>
    <style>
      .cls-1 {
        fill-rule: evenodd;
      }
    </style>
  </defs>
  <path class="cls-1" d="M7.72,6.71c.76.09,2.17.26,2.59.31.16.02.32-.05.41-.18.09.04.2.07.31.09.42.09.82.01,1.09-.16.22-.14.37-.34.42-.57.05-.23,0-.48-.15-.69-.18-.27-.52-.5-.94-.58-.07-.01-.15-.02-.22-.03,0-.05-.02-.11-.05-.16-.06-.13-.18-.22-.32-.27-.44-.13-1.44-.44-2.14-.65-.28-.08-.58-.05-.84.08-.25.14-.44.37-.53.65h0c-.11.39-.21.81-.3,1.24h0c-.04.21,0,.43.13.6s.32.29.53.31h0Z"/>
  <path class="cls-1" d="M8.72,3.29c.69.24,1.87.65,2.34.81.25.08.52-.02.64-.24,0,0,.01-.02.02-.03.12.06.25.12.39.16.45.14.9.11,1.22-.03.26-.12.44-.31.52-.55.07-.24.03-.5-.11-.75-.18-.3-.53-.58-.98-.72-.06-.02-.12-.03-.18-.05-.06-.49-.49-.93-1.1-1.17-.89-.35-2.13-.29-2.8.51-.01.01-.02.03-.03.05,0,0-.17.32-.41.88-.09.21-.09.46,0,.68s.27.38.5.46h0Z"/>
  <path class="cls-1" d="M7.87,10.05c.7-.11,1.83-.29,2.39-.38.17-.02.32-.12.42-.25.04-.05.07-.11.09-.18.16.06.34.1.53.11.42.02.81-.09,1.05-.28.21-.16.33-.37.34-.6.01-.23-.08-.45-.26-.64-.22-.22-.58-.38-1.01-.41-.29-.02-.56.03-.78.13-.09-.11-.22-.19-.37-.2-.48-.04-1.64-.16-2.39-.23-.27-.02-.54.06-.75.24-.2.18-.32.44-.33.71h0c0,.39,0,.79.03,1.19h0c.02.25.15.47.35.63.2.15.45.21.7.18Z"/>
  <path class="cls-1" d="M11.88,12.54c.2-.07.35-.24.4-.45.02-.08.02-.16,0-.24.09,0,.18-.02.28-.04.73-.18,1.16-.81,1.02-1.34-.13-.53-.81-.87-1.54-.69-.34.08-.62.27-.8.49-.16-.24-.46-.37-.75-.3l-2.32.48c-.29.06-.53.25-.66.51s-.13.57,0,.84c.21.44.44.84.67,1.2h0c.28.43.82.61,1.3.43.67-.25,1.77-.66,2.39-.89h0Z"/>
  <path class="cls-1" d="M16.85,16.79c-.27-.21-.7-.35-1.18-.31-.26.01-.51.08-.71.18-.05-.19-.17-.35-.34-.45-.18-.11-.4-.13-.61-.07-.61.19-1.71.52-2.34.72-.4.12-.67.5-.65.93h0c.02.35,0,.74-.08,1.18h0c-.04.26.04.52.23.71s.45.26.71.22c.76-.14,1.94-.35,2.55-.46.38-.07.67-.39.69-.79v-.09c.2.06.44.09.69.07.47-.03.88-.22,1.12-.47.2-.2.3-.45.28-.7s-.15-.48-.37-.66h0Z"/>
  <path class="cls-1" d="M15.33,21.03c-.18-.03-.36-.03-.52-.02,0-.02.01-.05.02-.08h0c.07-.23.01-.48-.14-.67-.16-.18-.4-.27-.64-.23-.83.13-2.32.37-3,.48-.33.05-.61.28-.73.59-.11.29-.24.61-.38.94-.2.46.02.87.53,1.14.53.27,1.41.39,2.19.26.54-.09,1.04-.31,1.36-.65.02-.02.06-.02.08,0h0c.22.17.52.31.86.37.47.08.91,0,1.2-.19.24-.15.4-.37.44-.62s-.03-.51-.21-.73c-.22-.27-.6-.5-1.07-.58h0Z"/>
  <path class="cls-1" d="M11.63,16.45c.6-.23,1.56-.59,2.13-.81.2-.08.37-.24.46-.44.07-.17.08-.36.03-.54.12-.02.24-.04.37-.09.41-.14.73-.39.9-.65.15-.23.18-.47.11-.68-.07-.21-.25-.38-.5-.48-.29-.1-.69-.1-1.11.03-.23.08-.43.19-.59.32h-.01s-.03-.04-.04-.06h0c-.17-.24-.48-.34-.76-.24-.53.18-1.82.63-2.6.91-.24.08-.42.28-.49.52s-.02.51.14.71h0c.3.37.57.72.79,1.08.24.41.74.59,1.18.42h0Z"/>
</svg>