<?xml version="1.0" encoding="UTF-8"?>
<svg id="Layer_1" data-name="Layer 1" xmlns="http://www.w3.org/2000/svg" viewBox="0 0 24 24">
  <path d="M10.33,7.27s-.07,0-.1,0c-.39-.05-1.69-.21-2.38-.29-.04,0-.08-.02-.12-.04-.24-.06-.45-.2-.61-.41-.18-.24-.25-.56-.19-.86.08-.4.18-.8.29-1.16.11-.35.35-.65.67-.83.34-.18.71-.22,1.06-.11.65.2,1.57.48,1.97.6.22.07.41.23.51.43.49.11.87.36,1.09.69.2.29.27.61.19.94-.07.31-.26.57-.55.76-.37.22-.83.3-1.29.2-.04,0-.09-.02-.13-.03-.12.08-.27.12-.41.12ZM8.05,6.24c.72.08,1.91.23,2.28.28.1-.14.32-.21.48-.14.07.03.13.05.21.06.28.06.55.02.75-.1.12-.08.19-.18.22-.29.03-.12,0-.23-.08-.34-.13-.19-.36-.33-.63-.39l-.19-.03c-.18-.03-.31-.19-.31-.37-.02,0-.05-.03-.08-.04-.39-.12-1.31-.4-1.96-.6-.16-.05-.33-.03-.48.05-.14.08-.26.22-.31.38-.09.34-.19.72-.27,1.1-.02.09,0,.19.05.26.04.06.12.13.23.14.04,0,.07.01.1.02Z"/>
  <path d="M11.19,4.19c-.09,0-.17-.01-.26-.04-.37-.12-1.24-.43-1.82-.63-.03,0-.07,0-.1-.02-.28-.09-.51-.31-.63-.58-.12-.28-.12-.58,0-.86.2-.47.35-.75.35-.75.02-.03.07-.11.09-.14.65-.78,1.86-.85,2.72-.51.53.21.93.59,1.08,1.02.4.12.77.4.97.74.17.29.22.61.13.92-.09.3-.31.54-.63.69-.4.16-.85.17-1.28.04-.04-.01-.08-.03-.11-.04-.14.11-.32.17-.5.17ZM9.18,2.75s.04,0,.06.02l.07.02c.57.2,1.48.52,1.85.64.02-.03.15-.12.17-.15.11-.11.28-.13.43-.06.09.04.18.09.28.12.25.08.52.07.74-.01.1-.05.19-.13.21-.22.03-.1.01-.21-.05-.32-.09-.15-.29-.33-.6-.42-.16-.03-.4-.19-.42-.35-.03-.26-.3-.52-.67-.67-.59-.24-1.45-.21-1.88.31,0,0,0,0,0,0,0,0-.13.26-.31.69-.04.09-.04.18,0,.26.03.06.07.11.12.14Z"/>
  <path d="M8.16,10.19s-.03,0-.04,0c-.29,0-.54-.07-.75-.23-.25-.19-.42-.48-.45-.79-.03-.35-.03-.7-.03-1.05.02-.35.16-.67.41-.88.24-.22.57-.32.91-.29l2.02.2c.13,0,.25.05.36.12.2-.05.41-.08.61-.06.42.02.82.19,1.08.46.23.24.34.53.33.82-.01.3-.17.58-.43.79-.3.23-.71.34-1.14.32-.09,0-.17-.02-.26-.03-.14.17-.34.28-.55.31-.46.08-1.42.23-2.02.32-.02,0-.04,0-.06,0ZM8.09,7.69c-.11,0-.22.04-.3.11-.09.08-.15.2-.15.34,0,.3,0,.63.03.96,0,.1.06.2.15.27.11.08.23.09.31.08.02,0,.04,0,.07,0,.59-.09,1.48-.23,1.92-.3.05,0,.08-.03.1-.06.01-.02.03-.05.04-.08.07-.19.29-.28.48-.21.11.04.22.06.35.07.25.01.49-.05.64-.16.06-.05.14-.13.14-.23,0-.08-.04-.18-.12-.26-.13-.13-.35-.22-.6-.23-.17-.02-.35.02-.49.08-.16.07-.34.02-.45-.11l-.71-.09-1.37-.14s-.03,0-.04,0Z"/>
  <path d="M9.38,13.48c-.43,0-.82-.2-1.04-.55-.19-.3-.38-.64-.55-.99-.15-.31-.15-.68,0-1,.15-.31.44-.54.79-.61l1.84-.39c.23-.05.47,0,.67.1.16-.11.35-.2.55-.25.76-.2,1.51.17,1.68.82.07.27.03.57-.13.83-.19.32-.52.56-.91.67-.06.25-.27.49-.54.59-.02,0-.04.01-.07.02-.48.18-1.25.47-1.78.67-.17.06-.34.09-.51.09ZM10.61,10.66s-.03,0-.04,0l-1.84.39c-.12.03-.22.1-.27.21-.05.11-.05.24,0,.35.16.33.33.63.51.91.12.19.37.27.58.19.62-.23,1.43-.53,1.89-.71.02,0,.04-.01.05-.02.02-.02.05-.04.06-.08-.04-.11-.01-.23.06-.33.07-.1.19-.15.31-.15,0,0,.03,0,.12-.03.23-.06.41-.18.5-.34.05-.09.07-.18.05-.26-.05-.21-.38-.38-.76-.28-.19.05-.35.14-.44.26-.07.09-.19.14-.31.14-.12,0-.23-.06-.3-.16-.04-.06-.1-.09-.17-.09ZM11.6,12.35h0,0Z"/>
  <path d="M11.62,20.06c-.31,0-.62-.12-.86-.35-.29-.27-.42-.67-.36-1.07.07-.42.1-.79.08-1.17-.03-.62.36-1.18.94-1.36.5-.16,1.28-.4,1.92-.59l.54-.17c.33-.1.68-.06.95.11.13.07.25.18.35.32.17-.05.35-.08.53-.09.57-.05,1.11.1,1.5.41,0,0,0,0,0,0,.33.27.51.61.53.97.01.37-.13.72-.4,1.01-.36.35-.87.57-1.43.61-.14.01-.28,0-.43,0-.14.44-.5.77-.97.85l-1.17.21c-.52.09-1.07.19-1.5.27-.07.01-.15.02-.22.02ZM14.24,16.06s-.09,0-.13.02l-.55.17c-.63.19-1.41.43-1.91.59-.26.08-.43.33-.42.61.02.42,0,.87-.08,1.32-.02.14.03.3.14.4.12.11.27.16.42.13.43-.08.98-.18,1.51-.28l1.17-.21c.24-.04.4-.24.41-.48,0-.11.06-.26.15-.33.09-.07.21-.14.32-.1.19.05.39.07.59.06.38-.02.73-.17.94-.38.13-.14.2-.29.19-.46,0-.18-.14-.33-.25-.42-.23-.19-.59-.28-.97-.25-.22.02-.44.07-.62.15-.1.05-.22.05-.32,0-.1-.05-.18-.14-.2-.25-.02-.1-.09-.18-.18-.23-.07-.04-.14-.06-.21-.06Z"/>
  <path d="M12.13,23.63c-.54,0-1.08-.11-1.47-.31-.63-.35-.87-.91-.63-1.47.12-.27.23-.55.32-.79.15-.39.5-.68.92-.75.6-.09,1.89-.29,2.59-.41.35-.05.68.07.91.32.13.16.21.34.23.53.04,0,.07.01.11.02.02,0,.05.01.07.02.44.1.82.32,1.06.62.23.27.33.61.26.93-.06.32-.26.6-.55.78-.34.22-.82.31-1.3.22-.24-.04-.47-.12-.68-.24-.3.23-.71.4-1.17.48-.22.04-.44.06-.66.06ZM14.02,20.63s-.03,0-.04,0c-.7.12-1.99.32-2.58.41-.15.03-.28.13-.33.27-.09.25-.21.54-.34.83-.03.08-.12.29.29.51.39.21,1.08.28,1.65.18.41-.07.76-.23.96-.45.07-.07.2-.12.3-.12.08,0,.23.04.31.11.12.09.33.18.54.22.3.05.58,0,.77-.11.12-.08.2-.17.22-.29.02-.1-.02-.22-.11-.32-.15-.18-.41-.32-.71-.37-.02,0-.04,0-.05-.01-.08,0-.17-.01-.28,0-.1,0-.21-.03-.28-.1s-.12-.17-.12-.28c0-.06.04-.2.07-.25,0,0-.03-.1-.08-.16-.04-.04-.1-.07-.17-.07Z"/>
  <path d="M11.53,16.2c-.4,0-.8-.21-1.01-.58-.16-.27-.37-.54-.61-.83-.21-.25-.27-.61-.17-.92.1-.3.33-.55.63-.66l2.11-.73c.28-.1.59-.05.82.11.1-.06.21-.1.33-.14.4-.13.81-.14,1.14-.03.32.12.54.34.64.62.1.28.05.59-.13.88-.21.31-.54.55-.93.68,0,0-.02,0-.02,0-.01.1-.04.2-.08.29-.11.27-.32.47-.59.57l-.76.29c-.34.13-.69.26-.95.36,0,0,0,0,0,0-.13.05-.27.08-.41.08ZM11.81,15.77h0,0ZM12.78,13.17s-.03,0-.05,0l-2.1.73c-.07.03-.14.1-.17.18-.02.07,0,.16.04.22.25.32.48.6.67.92.1.18.32.26.5.18.26-.1.61-.24.95-.37l.77-.29c.1-.03.14-.1.16-.15.03-.07.03-.13.01-.2-.03-.1-.01-.21.04-.3.05-.09.14-.15.25-.17.09-.02.18-.04.27-.06.22-.07.42-.21.52-.37.03-.05.08-.14.05-.22-.03-.09-.12-.14-.19-.17-.12-.04-.36-.06-.65.04-.14.04-.26.11-.35.19-.17.14-.44.1-.57-.08-.01-.01-.02-.02-.03-.04-.03-.04-.08-.07-.13-.07Z"/>
</svg>